<?xml version="1.0" encoding="UTF-8" standalone="no"?>
<!-- Created with Inkscape (http://www.inkscape.org/) -->

<svg
   xmlns:dc="http://purl.org/dc/elements/1.1/"
   xmlns:cc="http://creativecommons.org/ns#"
   xmlns:rdf="http://www.w3.org/1999/02/22-rdf-syntax-ns#"
   xmlns:svg="http://www.w3.org/2000/svg"
   xmlns="http://www.w3.org/2000/svg"
   xmlns:sodipodi="http://sodipodi.sourceforge.net/DTD/sodipodi-0.dtd"
   xmlns:inkscape="http://www.inkscape.org/namespaces/inkscape"
   version="1.1"
   width="205.19444"
   height="62.0275"
   id="svg3004"
   xml:space="preserve"
   inkscape:version="0.91 r13725"
   sodipodi:docname="Cal_Poly_San_Luis_Obispo_wordmark.svg"><sodipodi:namedview
     pagecolor="#ffffff"
     bordercolor="#666666"
     borderopacity="1"
     objecttolerance="10"
     gridtolerance="10"
     guidetolerance="10"
     inkscape:pageopacity="0"
     inkscape:pageshadow="2"
     inkscape:window-width="1366"
     inkscape:window-height="706"
     id="namedview52"
     showgrid="false"
     fit-margin-top="0"
     fit-margin-left="0"
     fit-margin-right="0"
     fit-margin-bottom="0"
     inkscape:zoom="1.4475357"
     inkscape:cx="35.456698"
     inkscape:cy="5.1784675"
     inkscape:window-x="-8"
     inkscape:window-y="-8"
     inkscape:window-maximized="1"
     inkscape:current-layer="svg3004" /><metadata
     id="metadata3010"><rdf:RDF><cc:Work
         rdf:about=""><dc:format>image/svg+xml</dc:format><dc:type
           rdf:resource="http://purl.org/dc/dcmitype/StillImage" /><dc:title></dc:title></cc:Work></rdf:RDF></metadata><defs
     id="defs3008"><clipPath
       id="clipPath3020"><path
         d="M 0,792 612,792 612,0 0,0 0,792 Z"
         id="path3022"
         inkscape:connector-curvature="0" /></clipPath><clipPath
       id="clipPath3106"><path
         d="m 120.422,287.308 164.156,0 0,49.623 -164.156,0 0,-49.623 z"
         id="path3108"
         inkscape:connector-curvature="0" /></clipPath><clipPath
       id="clipPath3178"><path
         d="m 120.422,287.309 164.156,0 0,49.622 -164.156,0 0,-49.622 z"
         id="path3180"
         inkscape:connector-curvature="0" /></clipPath><clipPath
       id="clipPath3194"><path
         d="m 120.422,287.308 164.156,0 0,49.623 -164.156,0 0,-49.623 z"
         id="path3196"
         inkscape:connector-curvature="0" /></clipPath><clipPath
       id="clipPath3208"><path
         d="m 363.422,287.308 164.156,0 0,49.623 -164.156,0 0,-49.623 z"
         id="path3210"
         inkscape:connector-curvature="0" /></clipPath><clipPath
       id="clipPath3280"><path
         d="m 363.422,287.309 164.156,0 0,49.622 -164.156,0 0,-49.622 z"
         id="path3282"
         inkscape:connector-curvature="0" /></clipPath><clipPath
       id="clipPath3296"><path
         d="m 363.422,287.308 164.156,0 0,49.623 -164.156,0 0,-49.623 z"
         id="path3298"
         inkscape:connector-curvature="0" /></clipPath><clipPath
       id="clipPath3312"><path
         d="m 120.422,136.109 164.156,0 0,49.622 -164.156,0 0,-49.622 z"
         id="path3314"
         inkscape:connector-curvature="0" /></clipPath><clipPath
       id="clipPath3400"><path
         d="m 363.422,136.109 164.156,0 0,49.622 -164.156,0 0,-49.622 z"
         id="path3402"
         inkscape:connector-curvature="0" /></clipPath><clipPath
       id="clipPath3498"><path
         d="m 120.422,438.509 164.156,0 0,49.622 -164.156,0 0,-49.622 z"
         id="path3500"
         inkscape:connector-curvature="0" /></clipPath><clipPath
       id="clipPath3584"><path
         d="m 363.422,438.509 164.156,0 0,49.622 -164.156,0 0,-49.622 z"
         id="path3586"
         inkscape:connector-curvature="0" /></clipPath><clipPath
       id="clipPath3498-7"><path
         d="m 120.422,438.509 164.156,0 0,49.622 -164.156,0 0,-49.622 z"
         id="path3500-5"
         inkscape:connector-curvature="0" /></clipPath></defs><g
     transform="matrix(1.25,0,0,-1.25,-172.64292,833.88165)"
     id="g3012"><g
       transform="translate(17.692039,178.97432)"
       clip-path="url(#clipPath3498-7)"
       id="g3496"><path
         d="m 140.4081,444.5161 c -0.308,0.451 -0.857,0.648 -1.418,0.648 -0.812,0 -1.66,-0.349 -1.66,-1.189 0,-0.648 0.396,-0.938 1.638,-1.298 1.21,-0.35 2.331,-0.71 2.331,-2.1 0,-1.408 -1.33,-2.069 -2.738,-2.069 -0.9,0 -1.868,0.271 -2.395,0.98 l 0.791,0.589 c 0.33,-0.518 0.989,-0.789 1.66,-0.789 0.791,0 1.692,0.42 1.692,1.23 0,0.869 -0.648,1.018 -2.033,1.438 -1.099,0.331 -1.935,0.77 -1.935,1.95 0,1.36 1.287,2.038 2.649,2.038 0.869,0 1.605,-0.219 2.177,-0.828 l -0.759,-0.6 z"
         id="path3504"
         style="fill:#006838;fill-opacity:1;fill-rule:nonzero;stroke:none"
         inkscape:connector-curvature="0" /><path
         d="m 148.3482,444.6863 c -0.56576,-1.11445 -1.10168,-2.323 -1.638,-3.478 l 3.176,0 z m -0.417,1.079 0.868,0 3.308,-7.076 -1.077,0 -0.791,1.739 -3.892,0 -0.802,-1.739 -1.045,0 z"
         id="path3508"
         style="fill:#006838;fill-opacity:1;fill-rule:nonzero;stroke:none"
         inkscape:connector-curvature="0"
         sodipodi:nodetypes="ccccccccccccc" /><path
         d="m 156.2231,445.7652 1.164,0 4.508,-5.878 0.022,0 0,5.878 0.923,0 0,-7.076 -1.165,0 -4.507,5.878 -0.023,0 0,-5.878 -0.922,0 0,7.076 z"
         id="path3512"
         style="fill:#006838;fill-opacity:1;fill-rule:nonzero;stroke:none"
         inkscape:connector-curvature="0" /><path
         d="m 174.2783,445.7652 0.923,0 0,-6.296 3.562,0 0,-0.78 -4.485,0 0,7.076 z"
         id="path3516"
         style="fill:#006838;fill-opacity:1;fill-rule:nonzero;stroke:none"
         inkscape:connector-curvature="0" /><path
         d="m 188.7155,441.3873 c 0,-1.539 -0.792,-2.879 -2.936,-2.879 -2.142,0 -2.935,1.34 -2.935,2.879 l 0,4.378 0.924,0 0,-4.259 c 0,-1.138 0.462,-2.218 2.011,-2.218 1.551,0 2.013,1.08 2.013,2.218 l 0,4.259 0.923,0 0,-4.378 z"
         id="path3520"
         style="fill:#006838;fill-opacity:1;fill-rule:nonzero;stroke:none"
         inkscape:connector-curvature="0" /><path
         d="m 193.654,445.765 0.925,0 0,-7.076 -0.925,0 0,7.076 z"
         id="path3522"
         style="fill:#006838;fill-opacity:1;fill-rule:nonzero;stroke:none"
         inkscape:connector-curvature="0" /><path
         d="m 203.5267,444.5161 c -0.308,0.451 -0.856,0.648 -1.416,0.648 -0.815,0 -1.66,-0.349 -1.66,-1.189 0,-0.648 0.396,-0.938 1.637,-1.298 1.209,-0.35 2.33,-0.71 2.33,-2.1 0,-1.408 -1.33,-2.069 -2.736,-2.069 -0.901,0 -1.87,0.271 -2.397,0.98 l 0.792,0.589 c 0.33,-0.518 0.989,-0.789 1.66,-0.789 0.79,0 1.691,0.42 1.691,1.23 0,0.869 -0.648,1.018 -2.032,1.438 -1.099,0.331 -1.935,0.77 -1.935,1.95 0,1.36 1.287,2.038 2.65,2.038 0.866,0 1.603,-0.219 2.173,-0.828 l -0.757,-0.6 z"
         id="path3526"
         style="fill:#006838;fill-opacity:1;fill-rule:nonzero;stroke:none"
         inkscape:connector-curvature="0" /><path
         d="m 221.4797,442.2272 c 0,1.628 -1.253,2.937 -3.078,2.937 -1.826,0 -3.078,-1.309 -3.078,-2.937 0,-1.63 1.252,-2.939 3.078,-2.939 1.825,0 3.078,1.309 3.078,2.939 m -7.145,0 c 0,2.139 1.703,3.717 4.067,3.717 2.364,0 4.067,-1.578 4.067,-3.717 0,-2.14 -1.703,-3.719 -4.067,-3.719 -2.364,0 -4.067,1.579 -4.067,3.719"
         id="path3530"
         style="fill:#006838;fill-opacity:1;fill-rule:nonzero;stroke:none"
         inkscape:connector-curvature="0" /><path
         d="m 227.9151,439.469 1.561,0 c 0.901,0 1.88,0.328 1.88,1.23 0,0.989 -0.924,1.289 -1.859,1.289 l -1.582,0 0,-2.519 z m 0,3.297 1.274,0 c 0.87,0 1.771,0.171 1.771,1.149 0,0.87 -0.835,1.07 -1.671,1.07 l -1.374,0 0,-2.219 z m -0.923,2.999 2.374,0 c 1.286,0 2.583,-0.439 2.583,-1.739 0,-0.819 -0.528,-1.369 -1.365,-1.599 l 0,-0.021 c 1.002,-0.079 1.761,-0.81 1.761,-1.739 0,-1.56 -1.594,-1.978 -3.033,-1.978 l -2.32,0 0,7.076 z"
         id="path3534"
         style="fill:#006838;fill-opacity:1;fill-rule:nonzero;stroke:none"
         inkscape:connector-curvature="0" /><path
         d="m 236.8,445.765 0.923,0 0,-7.076 -0.923,0 0,7.076 z"
         id="path3536"
         style="fill:#006838;fill-opacity:1;fill-rule:nonzero;stroke:none"
         inkscape:connector-curvature="0" /><path
         d="m 246.6959,444.5161 c -0.308,0.451 -0.858,0.648 -1.418,0.648 -0.814,0 -1.662,-0.349 -1.662,-1.189 0,-0.648 0.398,-0.938 1.64,-1.298 1.208,-0.35 2.329,-0.71 2.329,-2.1 0,-1.408 -1.328,-2.069 -2.736,-2.069 -0.902,0 -1.869,0.271 -2.398,0.98 l 0.793,0.589 c 0.329,-0.518 0.989,-0.789 1.659,-0.789 0.793,0 1.693,0.42 1.693,1.23 0,0.869 -0.649,1.018 -2.034,1.438 -1.098,0.331 -1.933,0.77 -1.933,1.95 0,1.36 1.285,2.038 2.649,2.038 0.868,0 1.605,-0.219 2.175,-0.828 l -0.757,-0.6 z"
         id="path3540"
         style="fill:#006838;fill-opacity:1;fill-rule:nonzero;stroke:none"
         inkscape:connector-curvature="0" /><path
         d="m 253.3596,442.6467 1.561,0 c 0.924,0 1.561,0.38 1.561,1.17 0,0.789 -0.637,1.168 -1.561,1.168 l -1.561,0 0,-2.338 z m -0.923,3.118 2.308,0 c 1.43,0 2.726,-0.46 2.726,-1.939 0,-1.548 -1.45,-1.959 -2.55,-1.959 l -1.561,0 0,-3.178 -0.923,0 0,7.076 z"
         id="path3544"
         style="fill:#006838;fill-opacity:1;fill-rule:nonzero;stroke:none"
         inkscape:connector-curvature="0" /><path
         d="m 268.1808,442.2272 c 0,1.628 -1.253,2.937 -3.078,2.937 -1.824,0 -3.076,-1.309 -3.076,-2.937 0,-1.63 1.252,-2.939 3.076,-2.939 1.825,0 3.078,1.309 3.078,2.939 m -7.145,0 c 0,2.139 1.703,3.717 4.067,3.717 2.364,0 4.069,-1.578 4.069,-3.717 0,-2.14 -1.705,-3.719 -4.069,-3.719 -2.364,0 -4.067,1.579 -4.067,3.719"
         id="path3548"
         style="fill:#006838;fill-opacity:1;fill-rule:nonzero;stroke:none"
         inkscape:connector-curvature="0" /><path
         d="m 125.6943,484.7102 c 2.972,2.226 5.908,3.421 10.409,3.421 2.157,0 4.77,-0.735 6.612,-1.371 0.472,-0.148 0.841,-0.251 1.203,-0.235 -0.017,-0.927 0.264,-3.474 0.433,-5.945 -0.216,-0.271 -0.95,-0.269 -1.215,-0.012 -0.433,2.773 -1.825,6.033 -7.621,6.033 -6.143,0 -10.574,-4.975 -10.574,-11.966 0,-7.15 5.141,-12.734 10.925,-12.734 5.155,0 7.115,2.899 8.103,5.247 0.284,0.195 1.033,0.092 1.184,-0.194 -0.34,-2.089 -1.456,-4.871 -2.078,-5.618 -0.647,-0.13 -1.105,-0.251 -1.561,-0.358 -1.134,-0.263 -3.392,-0.596 -5.95,-0.596 -3.929,0 -6.696,0.551 -9.709,2.566 -3.491,2.342 -5.433,6.696 -5.433,11.085 0,4.443 2.031,8.25 5.272,10.677"
         id="path3552"
         style="fill:#006838;fill-opacity:1;fill-rule:nonzero;stroke:none"
         inkscape:connector-curvature="0" /><path
         d="m 173.2842,476.6659 c 0,3.299 -0.188,3.489 -2.226,3.823 l -0.901,0.145 c -0.33,0.239 -0.284,1.051 0.096,1.193 1.848,-0.095 3.317,-0.144 4.832,-0.144 1.517,0 2.986,0.045 4.55,0.141 0.38,-0.144 0.425,-0.956 0.095,-1.195 l -0.616,-0.142 c -1.988,-0.477 -2.226,-0.525 -2.229,-3.821 l -0.005,-10.276 c -0.001,-1.481 0.093,-2.82 0.52,-3.299 0.427,-0.429 0.797,-0.765 3.26,-0.765 2.889,-0.002 4.643,0.142 6.017,3.963 0.334,0.334 1.091,0.24 1.233,-0.191 -0.238,-2.006 -0.903,-4.397 -1.424,-5.302 -1.469,0.047 -2.843,0.095 -4.17,0.095 -1.276,0.051 -2.508,0.051 -3.74,0.051 l -3.497,0 c -1.517,0 -2.987,-0.045 -4.836,-0.14 -0.377,0.141 -0.425,0.956 -0.092,1.193 l 0.898,0.145 c 2.04,0.333 2.228,0.523 2.23,3.822 l 0.005,10.704 z"
         id="path3556"
         style="fill:#006838;fill-opacity:1;fill-rule:nonzero;stroke:none"
         inkscape:connector-curvature="0" /><path
         d="m 157.8562,469.8678 -3.078,0.002 c -1.04,10e-4 -1.526,0.174 -1.002,1.464 l 1.573,4.236 c 0.448,1.095 0.672,1.574 0.73,1.679 0.06,0.104 0.002,0 0.002,0 0.058,0.118 0.116,0.191 0.16,0.2 0.136,0.03 0.261,-0.196 0.36,-0.445 0.155,-0.297 0.333,-0.81 0.602,-1.591 l 1.508,-4.063 c 0.52,-1.386 0.376,-1.482 -0.855,-1.482 m 10.374,-7.889 -0.758,0.144 c -1.706,0.334 -2.132,0.956 -2.7,2.534 l -4.261,11.424 c -0.672,1.798 -1.216,3.82 -1.581,4.921 -0.062,0.191 -0.16,0.43 -0.254,0.568 -0.112,0.169 -0.235,0.215 -0.373,0.206 l 0.001,0.003 c -0.771,-0.084 -1.476,-0.101 -2.141,-0.096 -1.038,0.054 -1.984,0.156 -2.946,0.144 -0.265,-0.088 -0.39,-0.381 -0.377,-0.665 -0.021,-0.257 0.074,-0.532 0.285,-0.662 0.096,-0.099 1.118,-0.045 2.056,-0.928 -0.18,-0.774 -0.509,-1.746 -1.077,-3.126 l -4.164,-11.066 c -0.947,-2.294 -1.472,-2.818 -2.94,-3.153 l -1.09,-0.239 c -0.333,-0.239 -0.333,-1.004 0.093,-1.195 0.854,0.048 1.991,0.143 3.319,0.143 1.326,-10e-4 2.559,-0.049 3.742,-0.145 0.476,0.094 0.522,0.955 0.144,1.194 l -1.279,0.241 c -0.901,0.19 -1.043,0.381 -0.522,1.911 l 1.093,3.06 c 0.378,1.098 0.521,1.144 1.61,1.144 l 4.502,-0.003 c 1.09,0 1.234,-0.048 1.61,-1.147 l 1.138,-3.105 c 0.566,-1.482 0.614,-1.769 -0.616,-1.96 l -0.949,-0.144 c -0.427,-0.19 -0.379,-1.052 0.094,-1.195 1.185,0.097 2.56,0.143 4.264,0.142 1.613,0 2.704,-0.048 3.935,-0.145 0.473,0.096 0.569,0.956 0.142,1.195"
         id="path3560"
         style="fill:#006838;fill-opacity:1;fill-rule:nonzero;stroke:none"
         inkscape:connector-curvature="0" /><path
         d="m 248.5135,476.6659 c 0,3.299 0.064,3.487 -1.974,3.823 l -0.899,0.145 c -0.332,0.239 -0.285,1.051 0.096,1.193 1.846,-0.096 3.062,-0.144 4.578,-0.144 1.518,0 2.986,0.045 4.551,0.141 0.379,-0.144 0.424,-0.956 0.094,-1.195 l -0.618,-0.142 c -1.988,-0.479 -2.226,-0.525 -2.227,-3.822 l -0.004,-10.275 c -0.002,-1.482 0.092,-2.82 0.52,-3.299 0.425,-0.429 1.337,-0.765 3.8,-0.765 2.887,-0.002 4.641,0.142 6.017,3.963 0.332,0.334 1.089,0.24 1.231,-0.191 -0.237,-2.006 -0.901,-4.397 -1.424,-5.302 -1.467,0.047 -2.841,0.095 -4.168,0.095 -1.276,0.051 -2.509,0.051 -3.741,0.051 l -4.037,0 c -1.518,0 -2.59,-0.046 -4.438,-0.14 -0.378,0.141 -0.426,0.956 -0.093,1.193 l 0.899,0.145 c 2.039,0.332 1.829,0.523 1.831,3.821 l 0.006,10.705 z"
         id="path3564"
         style="fill:#006838;fill-opacity:1;fill-rule:nonzero;stroke:none"
         inkscape:connector-curvature="0" /><path
         d="m 223.5749,471.8669 c -0.002,-4.923 2.419,-10.228 7.916,-10.232 3.602,0 7.257,2.484 7.26,9.031 0,5.112 -2.609,10.275 -7.82,10.279 -3.413,0 -7.354,-2.341 -7.356,-9.078 m 19.196,-0.487 c -0.001,-6.452 -4.836,-11.133 -11.519,-11.13 -7.347,0.002 -11.704,4.832 -11.701,10.854 0.002,6.356 4.841,11.228 11.71,11.225 7.629,-0.003 11.515,-5.119 11.51,-10.949"
         id="path3568"
         style="fill:#006838;fill-opacity:1;fill-rule:nonzero;stroke:none"
         inkscape:connector-curvature="0" /><path
         d="m 271.6786,467.2591 c 0,1.482 -0.142,1.865 -1.325,4.064 l -3.458,6.451 c -0.993,1.913 -1.467,2.342 -2.7,2.584 l -1.231,0.237 c -0.331,0.287 -0.237,1.052 0.139,1.196 1.566,-0.096 2.657,-0.145 4.362,-0.145 1.422,-0.002 2.511,0.046 4.028,0.142 0.38,-0.193 0.522,-0.957 0.048,-1.196 l -0.663,-0.143 c -1.044,-0.239 -1.186,-0.526 -0.428,-2.005 l 1.752,-3.395 c 0.71,-1.434 1.419,-2.725 2.131,-3.968 0.759,1.291 1.47,2.438 2.277,3.965 l 1.896,3.489 c 0.711,1.337 0.808,1.768 -0.33,1.911 l -0.995,0.143 c -0.426,0.239 -0.38,1.004 0.096,1.197 1.419,-0.097 2.511,-0.146 3.599,-0.146 1.044,0 2.039,0.048 3.366,0.142 0.378,-0.144 0.473,-0.955 0.094,-1.196 l -1.139,-0.237 c -1.468,-0.287 -1.704,-0.572 -3.174,-2.961 l -2.943,-4.777 c -1.706,-2.725 -1.8,-3.204 -1.8,-4.587 l -0.002,-2.582 c 0,-2.819 0.189,-3.106 2.227,-3.347 l 1.185,-0.145 c 0.33,-0.237 0.284,-1.05 -0.096,-1.193 -2.086,0.095 -3.648,0.145 -5.119,0.146 -1.518,0 -2.985,-0.048 -5.119,-0.142 -0.377,0.145 -0.425,0.955 -0.093,1.194 l 1.185,0.145 c 2.037,0.237 2.227,0.524 2.23,3.342 l 0,1.817 z"
         id="path3572"
         style="fill:#006838;fill-opacity:1;fill-rule:nonzero;stroke:none"
         inkscape:connector-curvature="0" /><path
         d="m 204.0286,467.1067 c 0.006,-3.995 0.159,-4.947 3.51,-5.011 l 1.176,-0.123 c 0.235,-0.2 0.158,-1.014 -0.081,-1.134 -2.267,0.079 -4.766,0.121 -6.354,0.121 -1.664,0.002 -3.881,-0.042 -5.629,-0.121 -0.237,0.121 -0.318,0.895 -0.078,1.134 l 0.933,0.121 c 2.443,0.283 2.94,0.411 2.853,5.013 l 0.005,14.657 c 0.002,3.407 -0.076,4.128 -1.865,4.29 l -1.428,0.16 c -0.278,0.242 -0.239,0.844 0.079,1.002 2.105,0.281 4.98,0.32 8.279,0.319 3.3,-0.002 6.486,-0.589 8.415,-1.65 3.096,-1.703 4.343,-4.246 4.343,-6.846 0,-3.895 -3.169,-6.21 -5.552,-6.924 -1.857,-0.559 -5.004,-0.645 -6.583,-0.396 -0.301,0.048 -0.05,0.779 0.202,0.777 5.253,-0.039 7.701,2.165 7.853,6.468 0.179,5.097 -3.072,7.157 -7.243,7.157 -2.104,0 -2.827,-0.217 -2.827,-1.497 l -0.008,-17.517 z"
         id="path3576"
         style="fill:#006838;fill-opacity:1;fill-rule:nonzero;stroke:none"
         inkscape:connector-curvature="0" /><path
         d="m 122.357,452.162 160.513,0 0,0.718 -160.513,0 0,-0.718 z"
         id="path3578"
         style="fill:#006838;fill-opacity:1;fill-rule:nonzero;stroke:none"
         inkscape:connector-curvature="0" /></g></g></svg>